<svg class="block mx-auto" width="264" height="60" viewBox="0 0 264 60" fill="none" xmlns="http://www.w3.org/2000/svg"><g clip-path="url(#clip0_13151_124143)"><path d="M29.9986 0C13.4301 0 0 13.4328 0 29.9986C0 46.5645 13.4301 59.9973 29.9986 59.9973C46.5672 59.9973 59.9973 46.5645 59.9973 29.9986C59.9973 13.4328 46.5672 0 29.9986 0ZM12.8836 20.6242V20.4155C17.0766 19.8966 19.5533 17.4198 20.0723 13.2269H20.281C20.8 17.4198 23.2767 19.8966 27.4697 20.4155V20.6242C23.2767 21.1432 20.8 23.62 20.281 27.8129H20.0723C19.5533 23.62 17.0766 21.1432 12.8836 20.6242V20.6242ZM48.0555 33.8346C39.7629 34.8616 34.8616 39.7629 33.8346 48.0555H33.42C32.393 39.7629 27.4917 34.8643 19.1991 33.8346V33.42C27.4917 32.393 32.3903 27.4916 33.42 19.1991H33.8346C34.8616 27.4916 39.7629 32.393 48.0555 33.42V33.8346V33.8346Z" fill="url(#paint0_linear_13151_124143)"></path><path fill-rule="evenodd" clip-rule="evenodd" d="M82.8018 16.4751C79.2816 16.4751 77.4116 14.089 77.4116 11.258C77.4116 8.42698 79.342 5.69758 82.8375 5.69758C84.1774 5.69758 85.1303 5.99414 85.9348 6.52958L84.9326 8.19358C84.3669 7.82563 83.7381 7.58674 82.8018 7.58674C80.9181 7.58674 79.9049 9.1107 79.9049 11.0081C79.9049 12.9055 80.8714 14.5695 82.8375 14.5695C83.9468 14.5695 84.614 14.1741 85.1467 13.7759L86.0721 15.3768C85.5476 15.8573 84.3038 16.4724 82.8045 16.4724M90.3117 16.4724C92.9532 16.4724 94.1257 14.3718 94.1257 12.4359C94.1257 10.5001 92.9285 8.47915 90.298 8.47915C87.6674 8.47915 86.5252 10.5331 86.5252 12.5018C86.5252 14.4706 87.6839 16.4724 90.3117 16.4724M90.2705 10.0718C91.4101 10.0718 91.8769 11.096 91.8769 12.5018C91.8769 13.9077 91.4869 14.8496 90.3474 14.8496C89.2079 14.8496 88.7768 13.8418 88.7768 12.4359C88.7768 11.0301 89.142 10.0718 90.2705 10.0718M95.3312 8.66587V13.9956C95.3312 15.396 95.9325 16.4724 97.5883 16.4724C98.8294 16.4724 99.6037 15.7969 100.007 15.2724C100.024 15.5827 100.101 16.0825 100.161 16.2857H102.254C102.157 15.8189 102.05 15.0445 102.05 14.0478V8.66861H99.9278V13.7649C99.774 13.9517 99.1919 14.6848 98.434 14.6848C97.6761 14.6848 97.4565 14.3086 97.4565 13.559V8.66861H95.3339L95.3312 8.66587ZM107.251 16.4724C108.627 16.4724 109.319 16.0221 109.676 15.7941L109.03 14.3608C108.8 14.4953 108.286 14.8139 107.429 14.8139C106.175 14.8139 105.576 13.8144 105.576 12.4195C105.576 11.0246 106.202 10.1075 107.383 10.1075C108.124 10.1075 108.602 10.3354 108.94 10.5495L109.612 9.08049C109.258 8.8471 108.531 8.47915 107.314 8.47915C105.013 8.47915 103.327 9.92348 103.327 12.4854C103.327 14.8688 104.829 16.4724 107.254 16.4724M117.474 16.2857V10.9587C117.474 9.55004 116.873 8.47915 115.217 8.47915C113.987 8.47915 113.267 9.15463 112.877 9.5775V5.04132H110.755V16.2884H112.877V11.1948C113.031 10.9916 113.613 10.2749 114.385 10.2749C115.093 10.2749 115.351 10.6484 115.351 11.398V16.2884H117.474V16.2857ZM119.204 5.03857V15.8683C119.574 16.044 120.621 16.4779 122.337 16.4779C124.613 16.4779 126.351 15.0445 126.351 12.425C126.351 9.8054 125.03 8.48464 123.161 8.48464C122.323 8.48464 121.667 8.92123 121.326 9.26996V5.04407H119.204V5.03857ZM121.326 10.7417C121.453 10.5797 121.928 10.1761 122.559 10.1761C123.63 10.1761 124.1 11.0136 124.1 12.4222C124.1 13.9846 123.432 14.7974 122.334 14.7974C121.779 14.7974 121.464 14.6793 121.324 14.6326V10.7445L121.326 10.7417ZM133.71 16.2884C133.603 15.7969 133.493 15.0473 133.493 13.9956V11.3184C133.493 9.28369 132.516 8.47915 130.432 8.47915C128.817 8.47915 127.815 9.16562 127.362 9.58024L128.279 10.8845C128.556 10.6813 129.223 10.1734 130.184 10.1734C131.146 10.1734 131.382 10.5605 131.382 11.1921V11.6094H131.124C129.125 11.6094 127.117 12.3398 127.117 14.3196C127.117 15.6898 128.111 16.4724 129.394 16.4724C130.454 16.4724 131.159 15.8875 131.494 15.4756C131.511 15.709 131.56 16.0962 131.621 16.2857H133.71V16.2884ZM131.382 14.2812C131.17 14.5091 130.758 14.921 130.044 14.921C129.578 14.921 129.152 14.6876 129.152 14.1439C129.152 13.2817 129.957 12.9302 131.124 12.9302H131.382V14.2812ZM137.31 16.4751C139.177 16.4751 140.314 15.6321 140.314 14.0176C140.314 12.738 139.471 12.1751 138.285 11.6891C137.425 11.3376 136.731 11.2168 136.731 10.717C136.731 10.3271 137.033 10.0718 137.747 10.0718C138.461 10.0718 139.054 10.3656 139.35 10.5495L140.086 9.08324C139.74 8.87455 138.949 8.4764 137.661 8.4764C135.951 8.4764 134.825 9.38529 134.825 10.8269C134.825 11.9746 135.437 12.565 136.473 13.0702C137.538 13.5892 138.392 13.721 138.392 14.2208C138.392 14.6546 137.958 14.877 137.184 14.877C136.354 14.877 135.627 14.4569 135.33 14.2537L134.622 15.753C135.083 16.066 135.951 16.4724 137.31 16.4724M145.232 14.8798C144.018 14.8798 143.442 14.1301 143.34 12.9934H148.079C148.329 10.1459 147.187 8.4764 144.817 8.4764C142.725 8.4764 141.072 10.0168 141.072 12.4387C141.072 14.8605 142.511 16.4724 145.037 16.4724C146.594 16.4724 147.36 16.0221 147.862 15.7392L147.184 14.3608C146.811 14.5475 146.251 14.8798 145.235 14.8798H145.232ZM143.329 11.549C143.466 10.5633 143.944 10.0223 144.784 10.0223C145.693 10.0223 146.025 10.706 146.039 11.549H143.329Z" fill="white"></path><path fill-rule="evenodd" clip-rule="evenodd" d="M97.3384 41.5369L100.447 44.6836C97.5745 47.6739 94.4278 49.563 89.2738 49.563C81.2476 49.563 75.2671 43.308 75.2671 35.3998V35.3202C75.2671 27.4917 81.1295 21.0774 89.4715 21.0774C94.5458 21.0774 97.6157 22.8485 100.252 25.3664L97.1434 28.9471C94.9413 26.9014 92.5798 25.523 89.433 25.523C84.1994 25.523 80.3442 29.8504 80.3442 35.2406V35.3202C80.3442 40.7104 84.161 45.0763 89.433 45.0763C92.816 45.0763 94.9797 43.7391 97.3411 41.5341L97.3384 41.5369ZM157.632 30.7566V30.8362C157.632 37.0117 152.676 40.2381 146.616 40.2381H141.146V49.0908H136.308V21.5497H147.168C153.621 21.5497 157.632 25.2099 157.632 30.7566V30.7566ZM152.714 30.8747C152.714 27.6483 150.394 25.9568 146.772 25.9568H141.146V35.8721H146.772C150.433 35.8721 152.714 33.8265 152.714 30.9543V30.8747V30.8747ZM115.285 21.3547L103.168 49.0908H108.124L117.449 27.1375L123.089 40.4166C121.45 39.6614 119.528 39.1837 117.306 39.1837H116.45V42.8384H117.306C123.38 42.8384 125.992 47.4158 126.744 49.0908H131.89L119.772 21.3547H115.288H115.285ZM193.551 21.5524H188.713V49.0935H208.03V44.6864H193.551V21.5497V21.5524ZM167.188 37.3686H180.997V33.0411H167.188V25.8799H182.768V21.5524H162.35V49.0935H182.966V44.766H167.188V37.3686ZM217.605 21.5524H212.767V49.0935H232.084V44.6864H217.605V21.5497V21.5524ZM247.183 21.3547L235.066 49.0908H240.022L249.347 27.1375L254.987 40.4166C253.348 39.6614 251.426 39.1837 249.204 39.1837H248.348V42.8384H249.204C255.278 42.8384 257.889 47.4158 258.642 49.0908H263.788L251.67 21.3547H247.186H247.183Z" fill="white"></path></g><defs><linearGradient id="paint0_linear_13151_124143" x1="6.43632" y1="63.652" x2="40.1199" y2="15.5444" gradientUnits="userSpaceOnUse"><stop stop-color="#EB4971"></stop><stop offset="0.17" stop-color="#EC4E6A"></stop><stop offset="0.4" stop-color="#EF5D58"></stop><stop offset="0.66" stop-color="#F4753B"></stop><stop offset="0.96" stop-color="#FA9612"></stop><stop offset="1" stop-color="#FC9C0C"></stop></linearGradient><clipPath id="clip0_13151_124143"><rect width="263.782" height="60" fill="white"></rect></clipPath></defs></svg>
